HIERARCHY
ROOT root
{
	OFFSET	0.000000	0.000000	0.000000
	CHANNELS 6 Xposition Yposition Zposition Zrotation Yrotation Xrotation
	JOINT lhipjoint
	{
		OFFSET	0.000000	0.000000	0.000000
		CHANNELS 3 Zrotation Yrotation Xrotation
		JOINT lfemur
		{
			OFFSET	1.656736	-1.802822	0.624766
			CHANNELS 3 Zrotation Yrotation Xrotation
			JOINT ltibia
			{
				OFFSET	2.597200	-7.135754	0.000000
				CHANNELS 3 Zrotation Yrotation Xrotation
				JOINT lfoot
				{
					OFFSET	2.492357	-6.847701	0.000000
					CHANNELS 3 Zrotation Yrotation Xrotation
					JOINT ltoes
					{
						OFFSET	0.197038	-0.541357	2.145811
						CHANNELS 3 Zrotation Yrotation Xrotation
						End Site
						{
							OFFSET	0.000000	-0.000000	1.112490
						}
					}
				}
			}
		}
	}
	JOINT rhipjoint
	{
		OFFSET	0.000000	0.000000	0.000000
		CHANNELS 3 Zrotation Yrotation Xrotation
		JOINT rfemur
		{
			OFFSET	-1.610701	-1.802823	0.624765
			CHANNELS 3 Zrotation Yrotation Xrotation
			JOINT rtibia
			{
				OFFSET	-2.595021	-7.129768	0.000000
				CHANNELS 3 Zrotation Yrotation Xrotation
				JOINT rfoot
				{
					OFFSET	-2.467804	-6.780241	0.000000
					CHANNELS 3 Zrotation Yrotation Xrotation
					JOINT rtoes
					{
						OFFSET	-0.230239	-0.632577	2.133676
						CHANNELS 3 Zrotation Yrotation Xrotation
						End Site
						{
							OFFSET	-0.000000	-0.000000	1.115690
						}
					}
				}
			}
		}
	}
	JOINT lowerback
	{
		OFFSET	0.000000	0.000000	0.000000
		CHANNELS 3 Zrotation Yrotation Xrotation
		JOINT upperback
		{
			OFFSET	0.019612	2.054496	-0.141116
			CHANNELS 3 Zrotation Yrotation Xrotation
			JOINT thorax
			{
				OFFSET	0.010210	2.064356	-0.059210
				CHANNELS 3 Zrotation Yrotation Xrotation
				JOINT lowerneck
				{
					OFFSET	0.001509	2.068054	0.008037
					CHANNELS 3 Zrotation Yrotation Xrotation
					JOINT upperneck
					{
						OFFSET	0.007130	1.567112	0.149683
						CHANNELS 3 Zrotation Yrotation Xrotation
						JOINT head
						{
							OFFSET	0.034286	1.560409	-0.100058
							CHANNELS 3 Zrotation Yrotation Xrotation
							End Site
							{
								OFFSET	0.013051	1.625595	-0.052648
							}
						}
					}
				}
				JOINT lclavicle
				{
					OFFSET	0.001509	2.068054	0.008037
					CHANNELS 3 Zrotation Yrotation Xrotation
					JOINT lhumerus
					{
						OFFSET	3.542050	0.904362	-0.173638
						CHANNELS 3 Zrotation Yrotation Xrotation
						JOINT lradius
						{
							OFFSET	4.865130	-0.000000	-0.000000
							CHANNELS 3 Zrotation Yrotation Xrotation
							JOINT lwrist
							{
								OFFSET	3.355540	-0.000000	0.000000
								CHANNELS 3 Zrotation Yrotation Xrotation
								JOINT lhand
								{
									OFFSET	1.677770	-0.000000	0.000000
									CHANNELS 3 Zrotation Yrotation Xrotation
									JOINT lfingers
									{
										OFFSET	0.661175	-0.000000	0.000000
										CHANNELS 3 Zrotation Yrotation Xrotation
										End Site
										{
											OFFSET	0.533057	-0.000000	0.000000
										}
									}
								}
								JOINT lthumb
								{
									OFFSET	1.677770	-0.000000	0.000000
									CHANNELS 3 Zrotation Yrotation Xrotation
									End Site
									{
										OFFSET	0.541196	-0.000000	0.541196
									}
								}
							}
						}
					}
				}
				JOINT rclavicle
				{
					OFFSET	0.001509	2.068054	0.008037
					CHANNELS 3 Zrotation Yrotation Xrotation
					JOINT rhumerus
					{
						OFFSET	-3.498016	0.759940	-0.326156
						CHANNELS 3 Zrotation Yrotation Xrotation
						JOINT rradius
						{
							OFFSET	-5.026490	-0.000000	0.000000
							CHANNELS 3 Zrotation Yrotation Xrotation
							JOINT rwrist
							{
								OFFSET	-3.364310	-0.000000	0.000000
								CHANNELS 3 Zrotation Yrotation Xrotation
								JOINT rhand
								{
									OFFSET	-1.682160	-0.000000	0.000000
									CHANNELS 3 Zrotation Yrotation Xrotation
									JOINT rfingers
									{
										OFFSET	-0.730406	-0.000000	0.000000
										CHANNELS 3 Zrotation Yrotation Xrotation
										End Site
										{
											OFFSET	-0.588872	-0.000000	0.000000
										}
									}
								}
								JOINT rthumb
								{
									OFFSET	-1.682160	-0.000000	0.000000
									CHANNELS 3 Zrotation Yrotation Xrotation
									End Site
									{
										OFFSET	-0.597863	-0.000000	0.597863
									}
								}
							}
						}
					}
				}
			}
		}
	}
}
MOTION
Frames:	10
Frame Time:	0.008333
	10.844200	17.280701	-3.975820	-16.622002	-51.628304	21.890900	0.000000	0.000000	0.000000	-0.414124	8.785567	-39.899639	4.598111	12.916401	39.056320	-0.504218	14.378393	-12.988762	0.004639	-0.439863	-1.208627	0.000000	0.000000	0.000000	27.994211	17.091080	-18.186625	-2.523566	-9.880625	28.591022	-0.510202	-1.088192	-13.930460	-0.401133	4.066273	-11.263192	-2.161640	1.650320	16.136200	-4.969920	1.405020	7.867489	-4.242530	0.601396	-0.595593	2.741570	9.690451	-12.648100	-3.059580	12.598800	-1.158470	-0.688760	6.200360	2.164430	2.741570	0.000000	0.000000	-87.054146	-46.629433	29.011793	34.872486	-44.720867	-14.723556	0.000000	-0.000000	-70.597397	32.523075	20.087963	12.352993	-7.125019	0.000000	0.000000	4.307570	53.376671	0.888755	2.741570	0.000000	0.000000	108.610039	43.718391	95.262756	-21.612627	32.536465	-6.376240	-0.000000	0.000002	-10.773896	-35.911022	9.751274	-6.992635	7.125019	0.000000	0.000000	-6.272087	-18.042358	-4.045441
	10.865400	17.272499	-3.978270	-18.111000	-52.159199	23.419401	0.000000	0.000000	0.000000	0.334106	9.507108	-40.415913	4.707579	13.046722	39.543617	-0.465784	14.204253	-13.390759	0.000011	-0.021780	-0.059845	0.000000	0.000000	0.000000	28.723497	17.270351	-18.383818	-2.478092	-9.797964	28.324928	-0.499859	-0.478869	-13.538339	-0.336647	3.728656	-10.314508	-1.959360	1.381000	16.165600	-5.126451	1.070710	8.097802	-4.469180	0.438230	-0.377153	2.880749	10.216599	-12.421801	-3.331890	13.291301	-1.501770	-0.769787	6.545040	2.057810	2.880750	0.000000	0.000000	-87.504791	-46.503571	29.324841	33.715649	-43.872944	-13.915616	0.000000	-0.000000	-71.393593	32.351761	20.019686	12.235345	-7.125019	0.000000	0.000000	4.133151	53.263847	0.841260	2.880750	0.000000	0.000000	108.107567	43.313908	94.671837	-21.627897	32.553936	-6.384455	0.000000	0.000000	-10.537098	-35.888168	9.507011	-6.815096	7.125019	0.000000	0.000000	-6.287898	-18.341192	-4.014074
	10.892100	17.259501	-3.977310	-19.265301	-52.511295	24.670694	0.000000	0.000000	0.000000	1.035718	9.600278	-40.844090	4.799701	13.154619	39.950054	-0.476242	14.441740	-13.731931	0.003584	0.386585	1.062212	0.000000	0.000000	0.000000	29.196539	17.456703	-18.642151	-2.440817	-9.729491	28.105108	-0.483688	-0.040718	-13.155586	-0.300698	3.525808	-9.746254	-1.823890	1.110490	16.335999	-5.263511	0.718550	8.316120	-4.638980	0.264314	-0.251338	2.836531	10.485100	-12.158699	-3.638610	13.663700	-1.933990	-0.859994	6.731021	1.898000	2.836530	0.000000	0.000000	-88.260727	-46.402996	30.016718	32.750977	-43.137753	-13.251493	-0.000001	0.000001	-71.958488	32.606693	20.581951	12.673917	-7.125019	0.000000	0.000000	4.331783	53.954144	0.954864	2.836530	0.000000	0.000000	107.219391	43.080688	94.187119	-21.671553	32.603836	-6.407969	0.000000	0.000000	-10.876900	-35.970406	8.692580	-6.259483	7.125019	0.000000	0.000000	-6.449429	-19.318020	-3.977894
	10.929400	17.260599	-3.970210	-19.344198	-53.283497	25.232704	0.000000	0.000000	0.000000	0.799710	9.667817	-41.384068	4.870625	13.236605	40.260742	-0.539082	15.028657	-13.855538	0.000030	0.035120	0.096491	0.000000	0.000000	0.000000	28.769535	17.578382	-19.201397	-2.413395	-9.678710	27.942432	-0.460381	0.599128	-12.623008	-0.319462	3.633153	-10.046817	-2.463731	0.937355	16.549402	-5.603000	0.366199	8.379370	-4.584500	0.069189	-0.319442	3.016420	10.716899	-11.922501	-4.088950	13.962000	-2.203650	-1.026810	6.874099	1.827980	3.016420	-0.000000	0.000000	-88.832634	-46.122543	30.993595	32.075848	-42.607559	-12.792145	-0.000001	0.000001	-73.130692	33.304504	20.046507	12.691551	-7.125019	0.000000	0.000000	5.152922	53.492645	1.078451	3.016420	-0.000000	0.000000	106.089050	42.791195	93.713501	-21.863949	32.822918	-6.511941	0.000000	-0.000002	-11.507199	-35.882904	7.794253	-5.603240	7.125019	0.000000	0.000000	-6.499484	-20.419464	-3.847983
	10.955400	17.271601	-3.971380	-19.395800	-54.352909	25.690599	0.000000	0.000000	0.000000	0.330731	10.293409	-41.786552	4.955937	13.334002	40.631981	-0.546702	15.227925	-14.184697	0.000534	-0.148993	-0.409358	0.000000	0.000000	0.000000	28.344601	17.670958	-19.610769	-2.395657	-9.645669	27.836744	-0.435378	1.418579	-12.051775	-0.332908	3.708096	-10.256851	-3.316530	0.838308	16.742502	-6.086989	0.066482	8.446160	-4.572220	-0.105854	-0.364283	3.065180	11.054399	-11.702600	-4.225369	14.410099	-2.498599	-1.068250	7.102370	1.720720	3.065180	0.000000	0.000000	-89.107925	-45.873150	31.463902	30.934502	-41.681053	-12.026263	-0.000001	0.000001	-73.689491	31.614347	18.817345	11.229855	-7.125019	0.000000	0.000000	3.511733	51.755299	0.584792	3.065180	0.000000	0.000000	105.415062	42.342445	93.153564	-21.908649	32.873627	-6.536187	-0.000000	0.000002	-11.631701	-35.691936	7.772390	-5.548856	7.125019	0.000000	0.000000	-6.366533	-20.467281	-3.761408
	10.974600	17.268801	-3.980860	-20.473497	-55.187798	26.903301	0.000000	0.000000	0.000000	0.661819	10.964642	-42.110153	5.072100	13.464537	41.133259	-0.484372	15.068538	-14.988978	0.006611	0.525102	1.442896	0.000000	0.000000	0.000000	28.634792	18.045275	-19.853579	-2.388890	-9.633024	27.796337	-0.406792	1.886956	-11.541399	-0.315279	3.609508	-9.980577	-3.678660	0.679081	16.933702	-6.432671	-0.235374	8.527890	-4.690100	-0.268995	-0.390669	3.308960	11.434900	-11.390001	-4.553071	14.892800	-2.948130	-1.206080	7.345450	1.582740	3.308960	0.000000	0.000000	-89.270386	-45.574497	31.916901	30.000168	-40.893536	-11.409734	0.000000	-0.000000	-73.673996	31.115679	18.156916	10.652745	-7.125019	0.000000	0.000000	3.080463	50.914497	0.449272	3.308960	0.000000	0.000000	105.128227	41.843067	92.822098	-21.812857	32.764877	-6.484272	-0.000000	0.000002	-11.427401	-35.372131	7.734791	-5.457931	7.125019	0.000000	0.000000	-6.143716	-20.547825	-3.617028
	10.988600	17.250000	-3.998490	-22.471703	-56.222301	29.300198	0.000000	0.000000	0.000000	1.372752	12.060022	-42.941776	5.201942	13.607667	41.688000	-0.445273	15.000989	-15.523779	0.023661	0.993035	2.729643	0.000000	0.000000	0.000000	29.224867	19.209187	-20.347878	-2.384152	-9.624157	27.768005	-0.366764	2.119549	-10.901542	-0.294545	3.489867	-9.645703	-3.934590	0.768403	16.580402	-6.551381	-0.144067	8.517302	-4.684060	-0.234593	-0.210864	3.374260	11.621000	-11.412801	-4.863320	15.133102	-3.137820	-1.299200	7.461380	1.566370	3.374260	-0.000000	0.000000	-89.924835	-45.364521	32.576057	29.798136	-40.719742	-11.277700	-0.000001	0.000001	-73.613396	31.912737	20.793554	12.466355	-7.125019	0.000000	0.000000	3.550308	54.046417	0.790224	3.374260	-0.000000	0.000000	104.421104	41.597752	92.075813	-21.696430	32.632236	-6.421374	0.000000	0.000000	-11.060297	-34.960625	7.178776	-4.993483	7.125019	0.000000	0.000000	-5.913706	-21.261757	-3.384426
	10.997500	17.228300	-4.016190	-24.429197	-57.206795	31.917099	0.000000	0.000000	0.000000	1.887556	13.289916	-44.088165	5.315640	13.730671	42.169113	-0.439647	15.006064	-15.628549	0.018425	0.876391	2.408759	0.000000	0.000000	0.000000	29.701982	20.442295	-21.056404	-2.379241	-9.614957	27.738621	-0.331514	2.488544	-10.300418	-0.274550	3.370320	-9.311507	-4.259281	0.855132	15.960703	-6.657660	-0.037939	8.441029	-4.623550	-0.193224	0.039373	3.046420	11.725701	-11.836000	-4.764921	15.305003	-2.990611	-1.178600	7.545511	1.655890	3.046420	-0.000000	0.000000	-90.875687	-45.128033	33.108284	29.125282	-40.131741	-10.841374	0.000000	-0.000000	-72.986382	31.286560	22.007990	12.828773	-7.125019	0.000000	0.000000	2.657977	55.272743	0.670698	3.046420	-0.000000	0.000000	103.655197	41.407036	91.179863	-21.632681	32.559399	-6.387032	0.000000	0.000000	-10.742897	-34.737316	6.830808	-4.714573	7.125019	0.000000	0.000000	-5.791621	-21.702435	-3.255724
	11.018300	17.222799	-4.010990	-24.740396	-57.568291	32.477097	0.000000	0.000000	0.000000	1.869065	13.395472	-44.426266	5.383766	13.803362	42.455399	-0.441884	15.131215	-15.847470	0.023802	0.996045	2.737927	0.000000	0.000000	0.000000	29.659939	20.375362	-21.472996	-2.377385	-9.611475	27.727503	-0.310609	2.893798	-9.927608	-0.262797	3.297970	-9.109444	-4.668059	0.500050	16.322197	-6.990761	-0.612774	8.465590	-4.661291	-0.490671	-0.149323	3.132260	12.041000	-11.880000	-4.979970	15.718596	-3.019990	-1.226420	7.748140	1.695670	3.132260	0.000000	0.000000	-91.357346	-44.675377	32.989059	28.567822	-39.633736	-10.483912	0.000000	-0.000000	-72.991600	30.915503	22.507286	12.911531	-7.125019	0.000000	0.000000	2.148797	55.746616	0.566839	3.132260	0.000000	0.000000	103.265167	40.940315	90.893906	-21.640280	32.568104	-6.391121	-0.000000	0.000002	-10.619597	-34.722363	6.668141	-4.600756	7.125019	0.000000	0.000000	-5.798475	-21.899464	-3.233539
	11.047300	17.225300	-3.996130	-24.472601	-57.927803	32.014999	0.000000	0.000000	0.000000	1.655282	13.143446	-44.041172	5.424516	13.846478	42.625912	-0.441063	15.374158	-16.350382	0.057006	1.540654	4.237799	0.000000	0.000000	0.000000	29.421558	19.822573	-21.438189	-2.370950	-9.599393	27.688936	-0.282624	3.242417	-9.449330	-0.238702	3.144250	-8.680609	-5.181330	0.126596	17.306801	-7.416340	-1.301360	8.587709	-4.716650	-0.848718	-0.560327	3.091129	12.406100	-11.502798	-5.189109	16.216196	-3.377680	-1.286330	8.006101	1.546000	3.091130	0.000000	-0.000000	-91.523445	-44.095543	32.958107	28.141363	-39.246044	-10.212997	0.000000	-0.000000	-73.333389	29.768482	22.376944	12.284408	-7.125019	0.000000	0.000000	0.918570	55.351849	0.233436	3.091130	0.000000	-0.000000	102.655907	40.408424	90.626419	-21.740236	32.682213	-6.445013	0.000000	-0.000002	-10.554401	-34.591351	6.753911	-4.636773	7.125019	0.000000	0.000000	-5.694722	-21.808584	-3.186936
